<svg xmlns="http://www.w3.org/2000/svg" shape-rendering="geometricPrecision" text-rendering="geometricPrecision" image-rendering="optimizeQuality" fill-rule="evenodd" clip-rule="evenodd" viewBox="0 0 512 356.18">
  <g fill-rule="nonzero">
    <path fill="#fff" d="M28.137 0H483.86C499.337 0 512 12.663 512 28.14v299.9c0 15.477-12.663 28.14-28.14 28.14H28.137C12.663 356.18 0 343.517 0 328.04V28.14C0 12.663 12.663 0 28.137 0z" />
    <path d="M512 106.852H0V28.14C0 12.663 12.663 0 28.137 0H483.86C499.337 0 512 12.663 512 28.14v78.712z" />
    <path fill="#060" d="M0 249.328h512v78.712c0 15.477-12.663 28.14-28.14 28.14H28.137C12.663 356.18 0 343.517 0 328.04v-78.712z" />
    <path stroke="#000" stroke-miterlimit="22.926" d="M192.379 283.834l3.855 2.226 103.991-180.118c6.083-1.63 9.421-7.413 12.761-13.197 2.226-3.857 11.131-19.279 14.989-39.32-15.426 13.363-24.331 28.785-26.557 32.642-3.34 5.784-6.678 11.568-5.049 17.649l-103.99 180.118z" />
    <path fill="#fff" d="M192.379 283.834l3.855 2.226 103.991-180.118c6.083-1.63 9.421-7.413 12.761-13.197 2.226-3.857 11.131-19.279 14.989-39.32-15.426 13.363-24.331 28.785-26.557 32.642-3.34 5.784-6.678 11.568-5.049 17.649l-103.99 180.118z" />
    <path stroke="#000" stroke-miterlimit="22.926" d="M319.621 283.834l-3.855 2.226-103.991-180.118c-6.083-1.63-9.421-7.413-12.761-13.197-2.226-3.857-11.131-19.279-14.989-39.32 15.426 13.363 24.331 28.785 26.557 32.642 3.34 5.784 6.678 11.568 5.049 17.649l103.99 180.118z" />
    <path fill="#fff" d="M319.621 283.834l-3.855 2.226-103.991-180.118c-6.083-1.63-9.421-7.413-12.761-13.197-2.226-3.857-11.131-19.279-14.989-39.32 15.426 13.363 24.331 28.785 26.557 32.642 3.34 5.784 6.678 11.568 5.049 17.649l103.99 180.118z" />
    <path fill="#B00" d="M0 231.518h213.703c6.678 17.81 28.94 53.427 42.297 53.427 13.357 0 35.619-35.617 42.297-53.427H512V124.662H298.297c-6.678-17.81-28.94-53.427-42.297-53.427-13.357 0-35.619 35.617-42.297 53.427H0v106.856z" />
    <path d="M298.297 231.518c6.68-17.81 11.131-35.618 11.131-53.428 0-17.81-4.452-35.618-11.131-53.428-6.678 17.81-11.13 35.618-11.13 53.428 0 17.81 4.453 35.618 11.13 53.428zM213.703 231.518c-6.68-17.81-11.131-35.618-11.131-53.428 0-17.81 4.452-35.618 11.131-53.428 6.678 17.81 11.13 35.618 11.13 53.428 0 17.81-4.453 35.618-11.13 53.428z" />
    <g fill="#fff">
      <path d="M264.904 178.09c0-7.377-3.986-13.357-8.904-13.357-4.918 0-8.904 5.98-8.904 13.357 0 7.377 3.986 13.357 8.904 13.357 4.918 0 8.904-5.98 8.904-13.357z" />
      <path d="M258.227 191.113s8.904 17.81 8.904 46.75-8.904 46.749-8.904 46.749v-93.499zM253.773 165.067s-8.904-17.81-8.904-46.75c0-28.941 8.904-46.749 8.904-46.749v93.499zM253.773 191.113s-8.904 17.81-8.904 46.75 8.904 46.749 8.904 46.749v-93.499zM258.227 165.067s8.904-17.81 8.904-46.75c0-28.941-8.904-46.749-8.904-46.749v93.499z" />
    </g>
  </g>
</svg>
